<?xml version="1.0" encoding="UTF-8" standalone="no"?>
<svg
   xmlns:dc="http://purl.org/dc/elements/1.1/"
   xmlns:cc="http://creativecommons.org/ns#"
   xmlns:rdf="http://www.w3.org/1999/02/22-rdf-syntax-ns#"
   xmlns:svg="http://www.w3.org/2000/svg"
   xmlns="http://www.w3.org/2000/svg"
   viewBox="0 0 38.771465 39.234268"
   height="39.234268"
   width="38.771465"
   xml:space="preserve"
   id="svg2"
   version="1.1"><metadata
     id="metadata8"><rdf:RDF><cc:Work
         rdf:about=""><dc:format>image/svg+xml</dc:format><dc:type
           rdf:resource="http://purl.org/dc/dcmitype/StillImage" /></cc:Work></rdf:RDF></metadata><defs
     id="defs6"><clipPath
       id="clipPath18"
       clipPathUnits="userSpaceOnUse"><path
         id="path16"
         d="M 0,29.426 H 29.079 V 0 H 0 Z" /></clipPath></defs><g
     transform="matrix(1.3333333,0,0,-1.3333333,0,39.234267)"
     id="g10"><g
       id="g12"><g
         clip-path="url(#clipPath18)"
         id="g14"><g
           transform="translate(14.5393,24.0668)"
           id="g20"><path
             id="path22"
             style="fill:#4a90e2;fill-opacity:1;fill-rule:nonzero;stroke:none"
             d="m 0,0 c -5.164,0 -9.351,-4.187 -9.351,-9.351 0,-5.164 4.187,-9.351 9.351,-9.351 5.164,0 9.351,4.187 9.351,9.351 C 9.351,-4.187 5.164,0 0,0 m 0,-2.5 c 3.778,0 6.851,-3.073 6.851,-6.851 0,-3.778 -3.073,-6.851 -6.851,-6.851 -3.778,0 -6.851,3.073 -6.851,6.851 0,3.778 3.073,6.851 6.851,6.851" /></g></g></g></g></svg>