<?xml version="1.0" encoding="UTF-8" standalone="no"?>
<svg
   xmlns:dc="http://purl.org/dc/elements/1.1/"
   xmlns:cc="http://creativecommons.org/ns#"
   xmlns:rdf="http://www.w3.org/1999/02/22-rdf-syntax-ns#"
   xmlns:svg="http://www.w3.org/2000/svg"
   xmlns="http://www.w3.org/2000/svg"
   viewBox="0 0 58.666668 58.666668"
   height="58.666668"
   width="58.666668"
   xml:space="preserve"
   id="svg2"
   version="1.1"><metadata
     id="metadata8"><rdf:RDF><cc:Work
         rdf:about=""><dc:format>image/svg+xml</dc:format><dc:type
           rdf:resource="http://purl.org/dc/dcmitype/StillImage" /></cc:Work></rdf:RDF></metadata><defs
     id="defs6"><clipPath
       id="clipPath18"
       clipPathUnits="userSpaceOnUse"><path
         id="path16"
         d="m 19.387,34.119 c -0.353,0 -0.834,-0.228 -1.061,-0.509 v 0 l -0.808,-1.001 c -0.225,-0.277 -0.71,-0.51 -1.075,-0.51 v 0 h -4.007 c -0.717,0 -1.312,-0.587 -1.312,-1.313 v 0 -0.045 c 0,-0.38 0.291,-0.661 0.651,-0.661 v 0 h 20.45 c 0.36,0 0.651,0.296 0.651,0.661 v 0 0.045 c 0,0.719 -0.588,1.313 -1.312,1.313 v 0 h -4.007 c -0.374,0 -0.847,0.229 -1.075,0.51 v 0 l -0.808,1.001 c -0.224,0.278 -0.702,0.509 -1.061,0.509 v 0 z M 12.211,29.07 13.564,13.157 c 0.154,-1.803 1.748,-3.277 3.56,-3.277 v 0 h 9.752 c 1.804,0 3.406,1.468 3.56,3.277 v 0 L 31.789,29.07 Z M 26.35,25.962 h 1.088 L 26.35,13.389 h -1.087 z m -4.894,0 h 1.088 V 13.389 h -1.088 z m -4.894,0 h 1.087 l 1.088,-12.573 h -1.088 z" /></clipPath><clipPath
       id="clipPath28"
       clipPathUnits="userSpaceOnUse"><path
         id="path26"
         d="M 0,44 H 44 V 0 H 0 Z" /></clipPath></defs><g
     transform="matrix(1.3333333,0,0,-1.3333333,0,58.666667)"
     id="g10"><g
       id="g12"><g
         clip-path="url(#clipPath18)"
         id="g14"><path
           id="path20"
           style="fill:#e24f61;fill-opacity:1;fill-rule:nonzero;stroke:none"
           d="M 4.559,40.684 H 39.442 V 3.315 H 4.559 Z" /></g></g><g
       id="g22"><g
         clip-path="url(#clipPath28)"
         id="g24"><g
           transform="translate(22,0.3772)"
           id="g30"><path
             id="path32"
             style="fill:none;stroke:#979797;stroke-width:0.75;stroke-linecap:butt;stroke-linejoin:miter;stroke-miterlimit:10;stroke-dasharray:none;stroke-opacity:1"
             d="m 0,0 c 11.942,0 21.623,9.681 21.623,21.623 0,11.942 -9.681,21.623 -21.623,21.623 -11.942,0 -21.623,-9.681 -21.623,-21.623 C -21.623,9.681 -11.942,0 0,0 Z" /></g></g></g></g></svg>