<?xml version="1.0" encoding="UTF-8" standalone="no"?>
<svg
   xmlns:dc="http://purl.org/dc/elements/1.1/"
   xmlns:cc="http://creativecommons.org/ns#"
   xmlns:rdf="http://www.w3.org/1999/02/22-rdf-syntax-ns#"
   xmlns:svg="http://www.w3.org/2000/svg"
   xmlns="http://www.w3.org/2000/svg"
   viewBox="0 0 58.666668 58.666668"
   height="38"
   width="38"
   xml:space="preserve"
   id="svg2"
   version="1.1"><metadata
     id="metadata8"><rdf:RDF><cc:Work
         rdf:about=""><dc:format>image/svg+xml</dc:format><dc:type
           rdf:resource="http://purl.org/dc/dcmitype/StillImage" /></cc:Work></rdf:RDF></metadata><defs
     id="defs6"><clipPath
       id="clipPath18"
       clipPathUnits="userSpaceOnUse"><path
         id="path16"
         d="M 0,44 H 44 V 0 H 0 Z" /></clipPath></defs><g
     transform="matrix(1.3333333,0,0,-1.3333333,0,58.666667)"
     id="g10"><g
       id="g12"><g
         clip-path="url(#clipPath18)"
         id="g14"><g
           transform="translate(22,0.3772)"
           id="g20"><path
             id="path22"
             style="fill:#ffffff;fill-opacity:1;fill-rule:nonzero;stroke:none"
             d="m 0,0 c 11.942,0 21.623,9.681 21.623,21.623 0,11.942 -9.681,21.623 -21.623,21.623 -11.942,0 -21.623,-9.681 -21.623,-21.623 C -21.623,9.681 -11.942,0 0,0" /></g><g
           transform="translate(22,0.3772)"
           id="g24"><path
             id="path26"
             style="fill:none;stroke:#979797;stroke-width:0.75;stroke-linecap:butt;stroke-linejoin:miter;stroke-miterlimit:10;stroke-dasharray:none;stroke-opacity:1"
             d="m 0,0 c 11.942,0 21.623,9.681 21.623,21.623 0,11.942 -9.681,21.623 -21.623,21.623 -11.942,0 -21.623,-9.681 -21.623,-21.623 C -21.623,9.681 -11.942,0 0,0 Z" /></g><g
           transform="translate(22,34.2392)"
           id="g28"><path
             id="path30"
             style="fill:#4a90e2;fill-opacity:1;fill-rule:evenodd;stroke:none"
             d="m 0,0 -14.505,-14.505 v -0.908 h 3.626 v -9.065 h 7.506 v 5.439 h 6.746 v -5.439 h 7.506 v 9.065 h 3.626 v 0.908 L 9.066,-9.066 5.44,-5.44 Z" /></g></g></g></g></svg>