<svg xmlns="http://www.w3.org/2000/svg" viewBox="0 0 58.666668 58.666668" height="38" width="38"><defs><clipPath id="a"><path d="M0 44h44V0H0z"/></clipPath></defs><g clip-path="url(#a)"><path d="M29.333 58.164c15.92 0 28.823-12.905 28.823-28.823C58.156 13.423 45.252.518 29.333.518 13.413.517.51 13.422.51 29.34c0 15.92 12.904 28.824 28.823 28.824" fill="#fff"/><path d="M29.333 58.164c15.92 0 28.823-12.905 28.823-28.823C58.156 13.423 45.252.518 29.333.518 13.413.517.51 13.422.51 29.34c0 15.92 12.904 28.824 28.823 28.824z" stroke="#979797" stroke-width="0.9997499999999999" stroke-miterlimit="10" fill="none"/><path d="M29.333 13.014L9.998 32.35v1.21h4.833v12.083h10.007v-7.25h8.992v7.25h10.005V33.56h4.833v-1.21l-7.25-7.25-4.833-4.834z" fill="#4a90e2" fill-rule="evenodd"/></g></svg>