<svg xmlns="http://www.w3.org/2000/svg" viewBox="0 0 38.771465 39.234268" height="39.234" width="38.771"><defs><clipPath id="a"><path d="M0 29.426h29.08V0H0z"/></clipPath><clipPath id="b"><path d="M1.04 14.713c0-7.456 6.043-13.5 13.5-13.5 7.455 0 13.5 6.044 13.5 13.5s-6.045 13.5-13.5 13.5c-7.457 0-13.5-6.044-13.5-13.5"/></clipPath></defs><g><path d="M19.386 37.617c9.94 0 17.995-8.057 17.995-17.995.002-9.94-8.055-17.996-17.994-17.996-9.94 0-17.995 8.057-17.995 17.995 0 9.94 8.057 17.997 17.996 17.997" fill="#9b9b9b" fill-rule="evenodd" clip-path="url(#a)"/><g clip-path="url(#b)"><path d="M29.862 20.284l-11.997 8.483V11.8z" fill="#fff" fill-rule="evenodd"/><path d="M19.1 16.04H9.767v8.486H19.1z" fill="#fff" fill-rule="evenodd"/></g></g></svg>