<?xml version="1.0" encoding="UTF-8" standalone="no"?>
<svg
   xmlns:dc="http://purl.org/dc/elements/1.1/"
   xmlns:cc="http://creativecommons.org/ns#"
   xmlns:rdf="http://www.w3.org/1999/02/22-rdf-syntax-ns#"
   xmlns:svg="http://www.w3.org/2000/svg"
   xmlns="http://www.w3.org/2000/svg"
   viewBox="0 0 58.666668 58.666668"
   height="38"
   width="38"
   xml:space="preserve"
   id="svg2"
   version="1.1"><metadata
     id="metadata8"><rdf:RDF><cc:Work
         rdf:about=""><dc:format>image/svg+xml</dc:format><dc:type
           rdf:resource="http://purl.org/dc/dcmitype/StillImage" /></cc:Work></rdf:RDF></metadata><defs
     id="defs6"><clipPath
       id="clipPath18"
       clipPathUnits="userSpaceOnUse"><path
         id="path16"
         d="M 0,44 H 44 V 0 H 0 Z" /></clipPath><clipPath
       id="clipPath38"
       clipPathUnits="userSpaceOnUse"><path
         id="path36"
         d="m 20.337,28.744 0.737,-9.039 h 1.852 l 0.737,9.039 z" /></clipPath><clipPath
       id="clipPath48"
       clipPathUnits="userSpaceOnUse"><path
         id="path46"
         d="M 0,44 H 44 V 0 H 0 Z" /></clipPath></defs><g
     transform="matrix(1.3333333,0,0,-1.3333333,0,58.666667)"
     id="g10"><g
       id="g12"><g
         clip-path="url(#clipPath18)"
         id="g14"><g
           transform="translate(22,0.3772)"
           id="g20"><path
             id="path22"
             style="fill:#ffffff;fill-opacity:1;fill-rule:nonzero;stroke:none"
             d="m 0,0 c 11.942,0 21.623,9.681 21.623,21.623 0,11.942 -9.681,21.623 -21.623,21.623 -11.942,0 -21.623,-9.681 -21.623,-21.623 C -21.623,9.681 -11.942,0 0,0" /></g><g
           transform="translate(22,0.3772)"
           id="g24"><path
             id="path26"
             style="fill:none;stroke:#979797;stroke-width:0.75;stroke-linecap:butt;stroke-linejoin:miter;stroke-miterlimit:10;stroke-dasharray:none;stroke-opacity:1"
             d="m 0,0 c 11.942,0 21.623,9.681 21.623,21.623 0,11.942 -9.681,21.623 -21.623,21.623 -11.942,0 -21.623,-9.681 -21.623,-21.623 C -21.623,9.681 -11.942,0 0,0 Z" /></g><g
           transform="translate(22,34.2392)"
           id="g28"><path
             id="path30"
             style="fill:#ef8800;fill-opacity:1;fill-rule:evenodd;stroke:none"
             d="m 0,0 c -5.762,-3.253 -11.135,-3.17 -11.135,-3.17 0.527,-3.711 1.737,-9.069 1.737,-9.069 C -7.343,-22.085 0,-24.478 0,-24.478 c 0,0 7.343,2.393 9.398,12.239 0,0 1.21,5.358 1.737,9.069 0,0 -5.373,-0.083 -11.135,3.17" /></g></g></g><g
       id="g32"><g
         clip-path="url(#clipPath38)"
         id="g34"><path
           id="path40"
           style="fill:#ffffff;fill-opacity:1;fill-rule:nonzero;stroke:none"
           d="M 14.676,34.405 H 29.323 V 14.044 H 14.676 Z" /></g></g><g
       id="g42"><g
         clip-path="url(#clipPath48)"
         id="g44"><g
           transform="translate(23.5782,16.8009)"
           id="g50"><path
             id="path52"
             style="fill:#ffffff;fill-opacity:1;fill-rule:evenodd;stroke:none"
             d="m 0,0 c 0,-0.853 -0.707,-1.545 -1.578,-1.545 -0.872,0 -1.578,0.692 -1.578,1.545 0,0.853 0.706,1.545 1.578,1.545 C -0.707,1.545 0,0.853 0,0" /></g></g></g></g></svg>