<svg xmlns="http://www.w3.org/2000/svg" viewBox="0 0 58.666668 58.666668" height="38" width="38"><defs><clipPath id="a"><path d="M0 44h44V0H0z"/></clipPath><clipPath id="b"><path d="M20.337 28.744l.737-9.04h1.852l.737 9.04z"/></clipPath><clipPath id="c"><path d="M0 44h44V0H0z"/></clipPath></defs><g><g clip-path="url(#a)"><path d="M29.333 58.164c15.92 0 28.823-12.905 28.823-28.823C58.156 13.423 45.252.518 29.333.518 13.413.517.51 13.422.51 29.34c0 15.92 12.904 28.824 28.823 28.824" fill="#fff"/><path d="M29.333 58.164c15.92 0 28.823-12.905 28.823-28.823C58.156 13.423 45.252.518 29.333.518 13.413.517.51 13.422.51 29.34c0 15.92 12.904 28.824 28.823 28.824z" stroke="#979797" stroke-width="0.9997499999999999" stroke-miterlimit="10" fill="none"/><path d="M29.333 13.014C21.653 17.35 14.49 17.24 14.49 17.24c.703 4.946 2.315 12.09 2.315 12.09 2.74 13.123 12.528 16.313 12.528 16.313s9.788-3.19 12.528-16.314c0 0 1.613-7.144 2.316-12.09 0 0-7.162.11-14.843-4.226" fill="#ef8800" fill-rule="evenodd"/></g><path d="M19.568 12.793h19.53V39.94h-19.53z" fill="#fff" clip-path="url(#b)"/><path d="M31.438 36.265c0 1.137-.942 2.06-2.103 2.06-1.163 0-2.104-.923-2.104-2.06s.942-2.06 2.105-2.06c1.16 0 2.103.923 2.103 2.06" fill="#fff" fill-rule="evenodd" clip-path="url(#c)"/></g></svg>