<?xml version="1.0" encoding="UTF-8" standalone="no"?>
<svg
   xmlns:dc="http://purl.org/dc/elements/1.1/"
   xmlns:cc="http://creativecommons.org/ns#"
   xmlns:rdf="http://www.w3.org/1999/02/22-rdf-syntax-ns#"
   xmlns:svg="http://www.w3.org/2000/svg"
   xmlns="http://www.w3.org/2000/svg"
   viewBox="0 0 82.497597 53.333332"
   height="53.333332"
   width="82.497597"
   xml:space="preserve"
   id="svg2"
   version="1.1"><metadata
     id="metadata8"><rdf:RDF><cc:Work
         rdf:about=""><dc:format>image/svg+xml</dc:format><dc:type
           rdf:resource="http://purl.org/dc/dcmitype/StillImage" /></cc:Work></rdf:RDF></metadata><defs
     id="defs6"><clipPath
       id="clipPath18"
       clipPathUnits="userSpaceOnUse"><path
         id="path16"
         d="M 0,40 H 61.873 V 0 H 0 Z" /></clipPath></defs><g
     transform="matrix(1.3333333,0,0,-1.3333333,0,53.333333)"
     id="g10"><g
       id="g12"><g
         clip-path="url(#clipPath18)"
         id="g14"><g
           transform="translate(5.2259,22.5288)"
           id="g20"><path
             id="path22"
             style="fill:#000000;fill-opacity:1;fill-rule:nonzero;stroke:none"
             d="m 0,0 c 0.602,-3.546 1.204,-7.092 1.806,-10.638 0.161,-0.95 1.606,-0.547 1.446,0.398 C 2.65,-6.694 2.048,-3.147 1.446,0.399 1.285,1.348 -0.161,0.946 0,0" /></g><g
           transform="translate(6.5384,23.1158)"
           id="g24"><path
             id="path26"
             style="fill:#000000;fill-opacity:1;fill-rule:nonzero;stroke:none"
             d="m 0,0 c 3.572,1.042 10.08,3.513 13.498,1.532 3.504,-2.031 1.779,-9.901 0.967,-13.199 -0.231,-0.937 1.215,-1.337 1.446,-0.399 0.73,2.964 1.12,5.974 0.97,9.032 -0.099,2.03 -0.15,4.282 -1.908,5.594 C 11.127,5.43 3.556,2.6 -0.399,1.446 -1.324,1.177 -0.93,-0.271 0,0" /></g><g
           transform="translate(10.3247,16.1509)"
           id="g28"><path
             id="path30"
             style="fill:#000000;fill-opacity:1;fill-rule:nonzero;stroke:none"
             d="m 0,0 c 3.525,-0.077 7.03,0.085 10.533,0.488 l -0.2,1.473 C 10.239,1.944 10.145,1.926 10.051,1.909 9.104,1.732 9.505,0.286 10.45,0.462 c 0.094,0.018 0.188,0.035 0.282,0.053 0.82,0.153 0.644,1.57 -0.199,1.473 C 7.03,1.585 3.525,1.423 0,1.5 -0.966,1.521 -0.965,0.021 0,0" /></g><g
           transform="translate(12.7605,21.2457)"
           id="g32"><path
             id="path34"
             style="fill:#000000;fill-opacity:1;fill-rule:nonzero;stroke:none"
             d="m 0,0 c 0.228,-3.595 0.6,-7.171 1.103,-10.738 0.134,-0.951 1.58,-0.546 1.447,0.399 C 2.065,-6.905 1.719,-3.46 1.5,0 1.439,0.959 -0.061,0.966 0,0" /></g><g
           transform="translate(8.1122,8.7984)"
           id="g36"><path
             id="path38"
             style="fill:#000000;fill-opacity:1;fill-rule:nonzero;stroke:none"
             d="m 0,0 c 5.451,0.033 10.874,0.375 16.286,1.028 0.946,0.114 0.957,1.615 0,1.5 C 10.873,1.875 5.451,1.533 0,1.5 -0.965,1.494 -0.967,-0.006 0,0" /></g><g
           transform="translate(36.7573,23.5195)"
           id="g40"><path
             id="path42"
             style="fill:#000000;fill-opacity:1;fill-rule:nonzero;stroke:none"
             d="m 0,0 c 0.357,-3.188 0.741,-6.372 1.155,-9.552 l 1.473,0.199 c -0.031,0.214 -0.062,0.427 -0.093,0.64 -0.137,0.952 -1.583,0.547 -1.446,-0.398 0.031,-0.214 0.062,-0.427 0.093,-0.641 0.119,-0.827 1.582,-0.64 1.473,0.2 C 2.241,-6.372 1.857,-3.188 1.5,0 1.394,0.949 -0.107,0.959 0,0" /></g><g
           transform="translate(37.5367,22.3507)"
           id="g44"><path
             id="path46"
             style="fill:#000000;fill-opacity:1;fill-rule:nonzero;stroke:none"
             d="m 0,0 c 4.188,1.15 8.423,2.026 12.743,2.511 2.732,0.307 4.398,-0.895 4.474,-3.704 0.064,-2.357 -0.034,-4.478 -1.348,-6.52 -0.524,-0.814 0.774,-1.567 1.295,-0.757 1.313,2.04 1.588,4.224 1.573,6.613 -0.01,1.449 0.402,4.805 -1.053,5.865 C 16.133,5.137 12.262,3.975 10.574,3.743 6.862,3.231 3.213,2.438 -0.399,1.446 -1.328,1.191 -0.934,-0.256 0,0" /></g><g
           transform="translate(38.9397,13.0898)"
           id="g48"><path
             id="path50"
             style="fill:#000000;fill-opacity:1;fill-rule:nonzero;stroke:none"
             d="m 0,0 c 5.539,-0.183 11.066,-0.096 16.596,0.26 0.958,0.061 0.965,1.562 0,1.5 C 11.066,1.404 5.538,1.317 0,1.5 -0.965,1.532 -0.964,0.032 0,0" /></g><g
           transform="translate(44.8704,32.5981)"
           id="g52"><path
             id="path54"
             style="fill:#000000;fill-opacity:1;fill-rule:nonzero;stroke:none"
             d="m 0,0 c 0.331,-9.05 0.803,-18.091 1.417,-27.126 0.065,-0.958 1.565,-0.965 1.5,0 C 2.303,-18.091 1.831,-9.05 1.5,0 1.465,0.962 -0.035,0.967 0,0" /></g></g></g></g></svg>