<?xml version="1.0" encoding="UTF-8" standalone="no"?>
<svg
   xmlns:dc="http://purl.org/dc/elements/1.1/"
   xmlns:cc="http://creativecommons.org/ns#"
   xmlns:rdf="http://www.w3.org/1999/02/22-rdf-syntax-ns#"
   xmlns:svg="http://www.w3.org/2000/svg"
   xmlns="http://www.w3.org/2000/svg"
   viewBox="0 0 53.333332 53.333332"
   height="53.333332"
   width="53.333332"
   xml:space="preserve"
   id="svg2"
   version="1.1"><metadata
     id="metadata8"><rdf:RDF><cc:Work
         rdf:about=""><dc:format>image/svg+xml</dc:format><dc:type
           rdf:resource="http://purl.org/dc/dcmitype/StillImage" /></cc:Work></rdf:RDF></metadata><defs
     id="defs6"><clipPath
       id="clipPath20"
       clipPathUnits="userSpaceOnUse"><path
         id="path18"
         d="M 0,40 H 40 V 0 H 0 Z" /></clipPath></defs><g
     transform="matrix(1.3333333,0,0,-1.3333333,0,53.333333)"
     id="g10"><path
       id="path12"
       style="fill:#e24f61;fill-opacity:1;fill-rule:evenodd;stroke:none"
       d="M 2,36.5 H 38 V 3.5 H 2 Z" /><g
       id="g14"><g
         clip-path="url(#clipPath20)"
         id="g16"><g
           transform="translate(21.5303,20)"
           id="g22"><path
             id="path24"
             style="fill:#ffffff;fill-opacity:1;fill-rule:evenodd;stroke:none"
             d="M 0,0 7.651,7.651 C 8.066,8.066 8.074,8.76 7.652,9.182 7.226,9.608 6.544,9.604 6.121,9.182 L -1.53,1.53 -9.182,9.182 c -0.415,0.415 -1.108,0.423 -1.53,0 -0.426,-0.425 -0.423,-1.108 0,-1.531 L -3.061,0 -10.712,-7.651 c -0.415,-0.415 -0.423,-1.109 0,-1.531 0.425,-0.426 1.108,-0.422 1.53,0 l 7.652,7.652 7.651,-7.652 c 0.415,-0.415 1.108,-0.423 1.531,0 0.425,0.425 0.422,1.108 -0.001,1.531 z" /></g></g></g></g></svg>